<svg height="2078" width="720" xmlns="http://www.w3.org/2000/svg">
<rect height="2078" fill="#555" width="720"></rect>
<text fill="#7f7" font-family="Courier New" font-size="12" xml:space="preserve">
<tspan x="10" y="26"></tspan>
<tspan x="10" y="42">&gt; npmdoc-rest@0.0.1 test /home/travis/build/npmdoc/node-npmdoc-rest</tspan>
<tspan x="10" y="58">&gt; (set -e; export PORT=$(utility2 shServerPortRandom); utility2 test test.js)</tspan>
<tspan x="10" y="74"></tspan>
<tspan x="10" y="90"></tspan>
<tspan x="10" y="106">[MODE_BUILD=npmTest] - 2017-04-04T09:31:05Z - npm-testing /home/travis/build/npmdoc/node-npmdoc-\</tspan>
<tspan x="10" y="122">rest</tspan>
<tspan x="10" y="138"></tspan>
<tspan x="10" y="154"></tspan>
<tspan x="10" y="170">covering $ /home/travis/.nvm/versions/node/v6.10.1/bin/node /home/travis/build/npmdoc/node-npmdo\</tspan>
<tspan x="10" y="186">c-rest/test.js</tspan>
<tspan x="10" y="202">merging file:///home/travis/build/npmdoc/node-npmdoc-rest/tmp/build/test-report.json to test-rep\</tspan>
<tspan x="10" y="218">ort</tspan>
<tspan x="10" y="234">&gt; server listening on http-port 33111</tspan>
<tspan x="10" y="250">rest.js: rest/interceptor/entity is deprecated, please use response.entity() instead</tspan>
<tspan x="10" y="266">rest.js: The main module has moved, please switch your configuration to use 'rest/browser' as th\</tspan>
<tspan x="10" y="282">e main module for browser applications.</tspan>
<tspan x="10" y="298">created apidoc file:///home/travis/build/npmdoc/node-npmdoc-rest/tmp/build/apidoc.html</tspan>
<tspan x="10" y="314"></tspan>
<tspan x="10" y="330"></tspan>
<tspan x="10" y="346">browserTest - created electron entry-page /home/travis/build/npmdoc/node-npmdoc-rest/tmp/electro\</tspan>
<tspan x="10" y="362">n.15b384dabbf0.f574988b93931.html</tspan>
<tspan x="10" y="378"></tspan>
<tspan x="10" y="394">rest.js: The main module has moved, please switch your configuration to use 'rest/browser' as th\</tspan>
<tspan x="10" y="410">e main module for browser applications.</tspan>
<tspan x="10" y="426">Xlib:  extension "RANDR" missing on display ":99.0".</tspan>
<tspan x="10" y="442">[node test-case 1 of 6 passed] - testCase_buildLib_default</tspan>
<tspan x="10" y="458">[node test-case 2 of 6 passed] - testCase_buildReadme_default</tspan>
<tspan x="10" y="474">[node test-case 3 of 6 passed] - testCase_buildTest_default</tspan>
<tspan x="10" y="490"></tspan>
<tspan x="10" y="506">browserTest - created electron entry-page /home/travis/build/npmdoc/node-npmdoc-rest/tmp/electro\</tspan>
<tspan x="10" y="522">n.15b384dad250.fd84fa600df9b.html</tspan>
<tspan x="10" y="538"></tspan>
<tspan x="10" y="554">merging file:///home/travis/build/npmdoc/node-npmdoc-rest/tmp/build/test-report.json to test-rep\</tspan>
<tspan x="10" y="570">ort</tspan>
<tspan x="10" y="586">Xlib:  extension "RANDR" missing on display ":99.0".</tspan>
<tspan x="10" y="602">Xlib:  extension "RANDR" missing on display ":99.0".</tspan>
<tspan x="10" y="618">[4892:0404/093106:WARNING:audio_manager.cc(314)] Multiple instances of AudioManager detected</tspan>
<tspan x="10" y="634">[4892:0404/093106:WARNING:audio_manager.cc(275)] Multiple instances of AudioManager detected</tspan>
<tspan x="10" y="650">[4926:0404/093106:ERROR:sandbox_linux.cc(343)] InitializeSandbox() called with multiple threads \</tspan>
<tspan x="10" y="666">in process gpu-process. </tspan>
<tspan x="10" y="682">[4892:0404/093106:ERROR:browser_gpu_channel_host_factory.cc(131)] Failed to create channel.</tspan>
<tspan x="10" y="698">&gt; server listening on http-port 58708</tspan>
<tspan x="10" y="714"></tspan>
<tspan x="10" y="730">browserTest - opened url /home/travis/build/npmdoc/node-npmdoc-rest/tmp/build/apidoc.html</tspan>
<tspan x="10" y="746"></tspan>
<tspan x="10" y="762">merging file:///home/travis/build/npmdoc/node-npmdoc-rest/tmp/build/test-report.json to test-rep\</tspan>
<tspan x="10" y="778">ort</tspan>
<tspan x="10" y="794">Xlib:  extension "RANDR" missing on display ":99.0".</tspan>
<tspan x="10" y="810">[4909:0404/093107:WARNING:audio_manager.cc(314)] Multiple instances of AudioManager detected</tspan>
<tspan x="10" y="826">[4909:0404/093107:WARNING:audio_manager.cc(275)] Multiple instances of AudioManager detected</tspan>
<tspan x="10" y="842">[4984:0404/093107:ERROR:sandbox_linux.cc(343)] InitializeSandbox() called with multiple threads \</tspan>
<tspan x="10" y="858">in process gpu-process. </tspan>
<tspan x="10" y="874">[4909:0404/093107:ERROR:browser_gpu_channel_host_factory.cc(131)] Failed to create channel.</tspan>
<tspan x="10" y="890"></tspan>
<tspan x="10" y="906">browserTest - opened url http://127.0.0.1:33111?modeTest=1</tspan>
<tspan x="10" y="922"></tspan>
<tspan x="10" y="938">[4909:0404/093109:INFO:CONSOLE(245)] "----------|-----------|-----------|-----------|-----------\</tspan>
<tspan x="10" y="954">|</tspan>
<tspan x="10" y="970">File      |   % Stmts |% Branches |   % Funcs |   % Lines |</tspan>
<tspan x="10" y="986">----------|-----------|-----------|-----------|-----------|</tspan>
<tspan x="10" y="1002">----------|-----------|-----------|-----------|-----------|</tspan>
<tspan x="10" y="1018">All files |       100 |       100 |       100 |       100 |</tspan>
<tspan x="10" y="1034">----------|-----------|-----------|-----------|-----------|</tspan>
<tspan x="10" y="1050">", source: file:///home/travis/build/npmdoc/node-npmdoc-rest/tmp/electron.15b384dad250.fd84fa600\</tspan>
<tspan x="10" y="1066">df9b.html (245)</tspan>
<tspan x="10" y="1082">[4909:0404/093109:INFO:CONSOLE(245)] "created coverage file:///tmp/build/coverage.html/index.htm\</tspan>
<tspan x="10" y="1098">l", source: file:///home/travis/build/npmdoc/node-npmdoc-rest/tmp/electron.15b384dad250.fd84fa60\</tspan>
<tspan x="10" y="1114">0df9b.html (245)</tspan>
<tspan x="10" y="1130">[node test-case 4 of 6 passed] - testCase_buildApp_default</tspan>
<tspan x="10" y="1146"></tspan>
<tspan x="10" y="1162">browserTest - created screenCapture file:///home/travis/build/npmdoc/node-npmdoc-rest/tmp/build/\</tspan>
<tspan x="10" y="1178">screenCapture.npmTest.browser._2Fhome_2Ftravis_2Fbuild_2Fnpmdoc_2Fnode-npmdoc-rest_2Ftmp_2Fbuild\</tspan>
<tspan x="10" y="1194">_2Fapidoc.html.png</tspan>
<tspan x="10" y="1210"></tspan>
<tspan x="10" y="1226">browserTest - created screenCapture file:///home/travis/build/npmdoc/node-npmdoc-rest/tmp/build/\</tspan>
<tspan x="10" y="1242">screenCapture.npmTest.browser._2Fhome_2Ftravis_2Fbuild_2Fnpmdoc_2Fnode-npmdoc-rest_2Ftmp_2Fbuild\</tspan>
<tspan x="10" y="1258">_2Fapidoc.html.html</tspan>
<tspan x="10" y="1274"></tspan>
<tspan x="10" y="1290">browserTest - exit-code 0 - /home/travis/build/npmdoc/node-npmdoc-rest/tmp/build/apidoc.html</tspan>
<tspan x="10" y="1306"></tspan>
<tspan x="10" y="1322">[node test-case 5 of 6 passed] - testCase_buildApidoc_default</tspan>
<tspan x="10" y="1338"></tspan>
<tspan x="10" y="1354">browserTest - created screenCapture file:///home/travis/build/npmdoc/node-npmdoc-rest/tmp/build/\</tspan>
<tspan x="10" y="1370">screenCapture.npmTest.browser..png</tspan>
<tspan x="10" y="1386"></tspan>
<tspan x="10" y="1402">browserTest - created screenCapture file:///home/travis/build/npmdoc/node-npmdoc-rest/tmp/build/\</tspan>
<tspan x="10" y="1418">screenCapture.npmTest.browser..html</tspan>
<tspan x="10" y="1434"></tspan>
<tspan x="10" y="1450">browserTest - exit-code 0 - http://127.0.0.1:33111?modeTest=1</tspan>
<tspan x="10" y="1466"></tspan>
<tspan x="10" y="1482"></tspan>
<tspan x="10" y="1498">browserTest - merged coverage from /home/travis/build/npmdoc/node-npmdoc-rest/tmp/coverage.npmTe\</tspan>
<tspan x="10" y="1514">st.browser.%2F.json</tspan>
<tspan x="10" y="1530"></tspan>
<tspan x="10" y="1546"></tspan>
<tspan x="10" y="1562">browserTest - merging test-report from /home/travis/build/npmdoc/node-npmdoc-rest/tmp/test-repor\</tspan>
<tspan x="10" y="1578">t.npmTest.browser.%2F.json</tspan>
<tspan x="10" y="1594"></tspan>
<tspan x="10" y="1610">[node test-case 6 of 6 passed] - testCase_webpage_default</tspan>
<tspan x="10" y="1626">-------------------------|-----------|-----------|-----------|-----------|</tspan>
<tspan x="10" y="1642">File                     |   % Stmts |% Branches |   % Funcs |   % Lines |</tspan>
<tspan x="10" y="1658">-------------------------|-----------|-----------|-----------|-----------|</tspan>
<tspan x="10" y="1674">   node-npmdoc-rest/     |       100 |       100 |       100 |       100 |</tspan>
<tspan x="10" y="1690">      example.js         |       100 |       100 |       100 |       100 |</tspan>
<tspan x="10" y="1706">      lib.npmdoc_rest.js |       100 |       100 |       100 |       100 |</tspan>
<tspan x="10" y="1722">      test.js            |       100 |       100 |       100 |       100 |</tspan>
<tspan x="10" y="1738">-------------------------|-----------|-----------|-----------|-----------|</tspan>
<tspan x="10" y="1754">All files                |       100 |       100 |       100 |       100 |</tspan>
<tspan x="10" y="1770">-------------------------|-----------|-----------|-----------|-----------|</tspan>
<tspan x="10" y="1786"></tspan>
<tspan x="10" y="1802">created coverage file:///home/travis/build/npmdoc/node-npmdoc-rest/tmp/build/coverage.html/index\</tspan>
<tspan x="10" y="1818">.html</tspan>
<tspan x="10" y="1834">merging file:///home/travis/build/npmdoc/node-npmdoc-rest/tmp/build/test-report.json to test-rep\</tspan>
<tspan x="10" y="1850">ort</tspan>
<tspan x="10" y="1866"></tspan>
<tspan x="10" y="1882">-------------------------------------------------------</tspan>
<tspan x="10" y="1898">| test-report - buildNpmdoc - node - linux v6.10.1 - 2017-04-04T09:30:49.836Z</tspan>
<tspan x="10" y="1914">|   26800 ms            0 failed        6 passed      |</tspan>
<tspan x="10" y="1930">-------------------------------------------------------</tspan>
<tspan x="10" y="1946"></tspan>
<tspan x="10" y="1962">created test-report file:///home/travis/build/npmdoc/node-npmdoc-rest/tmp/build/test-report.html</tspan>
<tspan x="10" y="1978"></tspan>
<tspan x="10" y="1994"></tspan>
<tspan x="10" y="2010">npmTest - 0 failed tests</tspan>
<tspan x="10" y="2026"></tspan>
<tspan x="10" y="2042"></tspan>
<tspan x="10" y="2058">[MODE_BUILD=npmTest] - 2017-04-04T09:31:19Z - EXIT_CODE - 0</tspan>
</text>
</svg>
